<svg width="169" height="58" viewBox="0 0 169 58" fill="none" xmlns="http://www.w3.org/2000/svg">
<g filter="url(#filter0_d_15_13)">
<path d="M12.115 49.915C10.795 49.915 9.55 49.735 8.38 49.375C7.21 49.045 6.265 48.475 5.545 47.665C4.825 46.855 4.465 45.76 4.465 44.38C4.465 43.9 4.51 43.42 4.6 42.94C4.6 42.76 4.705 42.67 4.915 42.67C5.095 42.67 5.185 42.745 5.185 42.895C5.185 43.075 5.185 43.24 5.185 43.39C5.155 43.54 5.14 43.705 5.14 43.885C5.14 45.145 5.515 46.18 6.265 46.99C6.985 47.8 7.93 48.4 9.1 48.79C10.27 49.18 11.5 49.375 12.79 49.375C14.23 49.375 15.625 49.165 16.975 48.745C18.775 48.175 20.47 47.275 22.06 46.045C23.68 44.845 25.18 43.465 26.56 41.905C24.49 40.135 22.93 37.96 21.88 35.38C20.86 32.77 20.35 30.01 20.35 27.1C20.35 24.61 20.725 22.105 21.475 19.585C22.255 17.035 23.395 14.62 24.895 12.34C26.425 10.06 28.315 8.035 30.565 6.265C32.845 4.465 35.485 3.055 38.485 2.035C41.485 0.984999 44.86 0.459998 48.61 0.459998C51.76 0.459998 54.295 0.849999 56.215 1.63C58.135 2.38 59.53 3.37 60.4 4.6C61.3 5.83 61.75 7.18 61.75 8.65C61.75 10.48 61.135 12.34 59.905 14.23C58.675 16.09 57.04 17.665 55 18.955C56.5 19.825 57.61 20.95 58.33 22.33C59.05 23.68 59.41 25.105 59.41 26.605C59.41 28.165 59.035 29.725 58.285 31.285C57.565 32.815 56.47 34.225 55 35.515C53.56 36.775 51.775 37.795 49.645 38.575C47.515 39.355 45.07 39.745 42.31 39.745C40.39 39.745 38.71 39.52 37.27 39.07C35.86 38.62 34.675 38.02 33.715 37.27C32.275 39.25 30.685 41.065 28.945 42.715C30.175 43.555 31.585 44.215 33.175 44.695C34.795 45.175 36.565 45.415 38.485 45.415C38.725 45.415 38.95 45.415 39.16 45.415C39.4 45.415 39.64 45.4 39.88 45.37C40.03 45.37 40.105 45.445 40.105 45.595C40.135 45.745 40.075 45.82 39.925 45.82C39.685 45.85 39.43 45.865 39.16 45.865C38.89 45.865 38.635 45.865 38.395 45.865C36.385 45.865 34.54 45.625 32.86 45.145C31.21 44.695 29.71 44.05 28.36 43.21C26.56 44.86 24.61 46.24 22.51 47.35C20.41 48.46 18.16 49.21 15.76 49.6C15.19 49.69 14.59 49.765 13.96 49.825C13.33 49.885 12.715 49.915 12.115 49.915ZM27.1 41.23C27.94 40.24 28.735 39.205 29.485 38.125C30.235 37.075 30.955 35.995 31.645 34.885C31.225 34.135 30.91 33.37 30.7 32.59C30.52 31.78 30.43 30.97 30.43 30.16C30.43 28.36 30.85 26.665 31.69 25.075C32.53 23.455 33.625 22.285 34.975 21.565C35.005 21.535 35.05 21.52 35.11 21.52C35.2 21.52 35.26 21.58 35.29 21.7C35.35 21.79 35.32 21.865 35.2 21.925C33.91 22.615 32.86 23.725 32.05 25.255C31.27 26.755 30.88 28.345 30.88 30.025C30.88 30.775 30.955 31.525 31.105 32.275C31.285 32.995 31.57 33.7 31.96 34.39C33.1 32.53 34.165 30.685 35.155 28.855C36.145 27.025 37.045 25.375 37.855 23.905C39.985 20.065 42.04 16.75 44.02 13.96C46 11.14 47.905 8.965 49.735 7.435C51.595 5.875 53.35 5.095 55 5.095C55.51 5.095 55.945 5.155 56.305 5.275C56.395 5.305 56.44 5.38 56.44 5.5C56.44 5.68 56.35 5.755 56.17 5.725C55.9 5.635 55.615 5.59 55.315 5.59C54.235 5.59 53.065 6.115 51.805 7.165C50.545 8.215 49.255 9.655 47.935 11.485C46.645 13.315 45.355 15.43 44.065 17.83C44.485 17.59 44.95 17.41 45.46 17.29C46 17.14 46.57 17.065 47.17 17.065C48.4 17.065 49.54 17.17 50.59 17.38C51.64 17.56 52.585 17.815 53.425 18.145C55.015 16.825 56.305 15.265 57.295 13.465C58.285 11.635 58.78 9.85 58.78 8.11C58.78 6.79 58.435 5.59 57.745 4.51C57.085 3.43 56.005 2.56 54.505 1.9C53.035 1.24 51.07 0.909998 48.61 0.909998C45.04 0.909998 41.815 1.42 38.935 2.44C36.085 3.46 33.58 4.855 31.42 6.625C29.29 8.395 27.49 10.42 26.02 12.7C24.58 14.95 23.5 17.32 22.78 19.81C22.06 22.3 21.7 24.775 21.7 27.235C21.7 29.965 22.135 32.56 23.005 35.02C23.905 37.45 25.27 39.52 27.1 41.23ZM46.27 20.98C47.38 20.98 48.46 20.8 49.51 20.44C50.56 20.05 51.55 19.525 52.48 18.865C51.79 18.445 50.995 18.115 50.095 17.875C49.225 17.635 48.25 17.515 47.17 17.515C46.42 17.515 45.715 17.635 45.055 17.875C44.425 18.115 43.93 18.4 43.57 18.73L43.03 19.765C43.06 20.095 43.33 20.38 43.84 20.62C44.35 20.86 45.16 20.98 46.27 20.98ZM42.085 39.295C44.365 39.295 46.375 38.89 48.115 38.08C49.855 37.3 51.325 36.265 52.525 34.975C53.725 33.685 54.625 32.275 55.225 30.745C55.855 29.185 56.17 27.64 56.17 26.11C56.17 24.88 55.96 23.71 55.54 22.6C55.12 21.49 54.475 20.53 53.605 19.72C52.525 20.26 51.355 20.68 50.095 20.98C48.865 21.28 47.59 21.43 46.27 21.43C45.25 21.43 44.455 21.325 43.885 21.115C43.345 20.905 42.97 20.65 42.76 20.35C42.31 21.25 41.86 22.18 41.41 23.14C40.96 24.07 40.525 25.03 40.105 26.02C39.265 27.91 38.335 29.77 37.315 31.6C36.325 33.43 35.215 35.185 33.985 36.865C34.885 37.585 35.995 38.17 37.315 38.62C38.665 39.07 40.255 39.295 42.085 39.295ZM63.1552 37.225C62.1352 37.225 61.4302 36.94 61.0402 36.37C60.6802 35.8 60.5002 35.095 60.5002 34.255C60.5002 33.385 60.6502 32.47 60.9502 31.51C61.2502 30.55 61.5352 29.785 61.8052 29.215C62.7652 27.205 64.1002 25.675 65.8102 24.625C67.5502 23.545 69.3352 23.005 71.1652 23.005C71.4052 23.005 71.6452 23.005 71.8852 23.005C72.1552 23.005 72.4102 23.035 72.6502 23.095C73.2502 23.185 73.5502 23.26 73.5502 23.32C73.5502 23.38 73.3252 23.44 72.8752 23.5C72.4552 23.56 72.1402 23.59 71.9302 23.59C70.4602 23.59 69.1402 23.98 67.9702 24.76C66.8302 25.54 65.8552 26.53 65.0452 27.73C64.2352 28.93 63.6052 30.16 63.1552 31.42C62.7352 32.65 62.5252 33.715 62.5252 34.615C62.5252 35.185 62.6152 35.65 62.7952 36.01C63.0052 36.37 63.3052 36.55 63.6952 36.55C64.1152 36.55 64.5952 36.265 65.1352 35.695C65.6752 35.125 66.2002 34.435 66.7102 33.625C67.2202 32.785 67.6852 31.975 68.1052 31.195C68.5252 30.385 68.8402 29.77 69.0502 29.35L70.9852 25.3C71.4952 25.18 72.0052 25.045 72.5152 24.895C73.0552 24.715 73.5652 24.52 74.0452 24.31C73.5352 25.18 73.0402 26.095 72.5602 27.055C72.1102 28.015 71.6452 28.96 71.1652 29.89C70.8052 30.58 70.4452 31.39 70.0852 32.32C69.7552 33.25 69.5902 34.09 69.5902 34.84V35.02C69.5902 35.26 69.6202 35.53 69.6802 35.83C69.7402 36.1 69.9052 36.235 70.1752 36.235C70.5052 36.235 70.9252 36.04 71.4352 35.65C71.9452 35.23 72.3052 34.915 72.5152 34.705C73.4752 33.745 74.3002 32.68 74.9902 31.51C75.7102 30.34 76.3702 29.155 76.9702 27.955C77.0302 27.895 77.0752 27.865 77.1052 27.865C77.3452 27.865 77.4352 27.985 77.3752 28.225C77.3752 28.225 77.3002 28.36 77.1502 28.63C77.0302 28.9 76.9552 29.05 76.9252 29.08C76.3552 30.13 75.7852 31.135 75.2152 32.095C74.6452 33.055 73.9702 33.97 73.1902 34.84C72.7102 35.32 72.1252 35.83 71.4352 36.37C70.7452 36.91 70.0552 37.18 69.3652 37.18C68.7052 37.18 68.2402 36.925 67.9702 36.415C67.7002 35.875 67.5652 35.275 67.5652 34.615C67.5652 34.195 67.5952 33.79 67.6552 33.4C67.7452 32.98 67.8352 32.62 67.9252 32.32C67.7152 32.86 67.3402 33.52 66.8002 34.3C66.2902 35.08 65.7052 35.77 65.0452 36.37C64.4152 36.94 63.7852 37.225 63.1552 37.225ZM76.7174 37.18C76.0274 37.18 75.5324 36.925 75.2324 36.415C74.9324 35.905 74.7824 35.305 74.7824 34.615C74.7824 33.685 74.9774 32.755 75.3674 31.825C75.9974 30.175 76.5824 28.75 77.1224 27.55C77.6924 26.35 78.2624 25.195 78.8324 24.085H77.6174C77.4974 24.085 77.4374 24.025 77.4374 23.905C77.4374 23.815 77.4824 23.71 77.5724 23.59C77.6624 23.47 77.7674 23.41 77.8874 23.41H79.1924L82.4324 16.93C82.9424 16.81 83.4824 16.675 84.0524 16.525C84.6524 16.345 85.1924 16.15 85.6724 15.94C85.1924 16.75 84.5324 17.815 83.6924 19.135C82.8524 20.425 81.9974 21.85 81.1274 23.41H84.3224C84.4424 23.41 84.5024 23.47 84.5024 23.59C84.5024 23.68 84.4574 23.785 84.3674 23.905C84.2774 24.025 84.1724 24.085 84.0524 24.085H80.7224C79.7924 25.735 78.9524 27.445 78.2024 29.215C77.4824 30.985 77.0024 32.65 76.7624 34.21C76.7324 34.33 76.7174 34.465 76.7174 34.615C76.7174 34.735 76.7174 34.84 76.7174 34.93C76.7174 35.74 76.9874 36.145 77.5274 36.145C77.8574 36.145 78.2324 36.01 78.6524 35.74C79.0724 35.44 79.4774 35.095 79.8674 34.705C80.8274 33.745 81.6524 32.68 82.3424 31.51C83.0624 30.34 83.7224 29.155 84.3224 27.955C84.3824 27.895 84.4274 27.865 84.4574 27.865C84.6674 27.865 84.7724 27.985 84.7724 28.225C84.7424 28.225 84.6524 28.36 84.5024 28.63C84.3824 28.9 84.3074 29.05 84.2774 29.08C83.7374 30.13 83.1824 31.135 82.6124 32.095C82.0424 33.055 81.3524 33.97 80.5424 34.84C80.0924 35.32 79.5224 35.83 78.8324 36.37C78.1424 36.91 77.4374 37.18 76.7174 37.18ZM91.3452 20.35C90.9252 20.35 90.5652 20.215 90.2652 19.945C89.9952 19.645 89.8602 19.3 89.8602 18.91C89.8602 18.4 90.0252 17.965 90.3552 17.605C90.7152 17.245 91.1352 17.065 91.6152 17.065C92.0352 17.065 92.3952 17.215 92.6952 17.515C92.9952 17.815 93.1452 18.19 93.1452 18.64C93.1452 19.12 92.9652 19.525 92.6052 19.855C92.2452 20.185 91.8252 20.35 91.3452 20.35ZM86.3952 37.225C85.8552 37.225 85.4202 37.03 85.0902 36.64C84.7902 36.22 84.6402 35.68 84.6402 35.02C84.6402 34.18 84.8052 33.28 85.1352 32.32C85.4952 31.36 85.9002 30.4 86.3502 29.44C86.8302 28.45 87.2502 27.52 87.6102 26.65C87.7602 26.23 87.8952 25.855 88.0152 25.525C88.1352 25.195 88.1952 24.925 88.1952 24.715C88.1952 24.415 88.0602 24.265 87.7902 24.265C87.4302 24.265 87.0702 24.49 86.7102 24.94C86.3502 25.39 86.0202 25.9 85.7202 26.47C85.4502 27.01 85.2252 27.445 85.0452 27.775C84.5952 28.645 84.1002 29.545 83.5602 30.475C83.0502 31.405 82.5252 32.26 81.9852 33.04C81.9852 33.07 81.9552 33.085 81.8952 33.085C81.8352 33.085 81.7602 33.04 81.6702 32.95C81.5802 32.86 81.5502 32.8 81.5802 32.77C82.1502 31.96 82.6752 31.105 83.1552 30.205C83.6652 29.275 84.1302 28.39 84.5502 27.55C84.8502 26.92 85.1802 26.275 85.5402 25.615C85.9302 24.925 86.3802 24.355 86.8902 23.905C87.4002 23.425 87.9852 23.185 88.6452 23.185C88.9452 23.185 89.2902 23.26 89.6802 23.41C90.1302 23.59 90.3552 23.98 90.3552 24.58C90.3552 24.88 90.2952 25.24 90.1752 25.66C90.0852 26.05 89.9502 26.5 89.7702 27.01C89.3802 28.03 88.9452 29.065 88.4652 30.115C88.0152 31.135 87.5952 32.17 87.2052 33.22C86.9052 34.03 86.7552 34.75 86.7552 35.38C86.7552 36.07 86.9802 36.415 87.4302 36.415C87.8502 36.415 88.4952 36.04 89.3652 35.29C90.2352 34.51 91.0452 33.535 91.7952 32.365C92.5452 31.165 93.4452 29.56 94.4952 27.55C94.5252 27.49 94.5852 27.46 94.6752 27.46C94.7352 27.46 94.7952 27.505 94.8552 27.595C94.9452 27.655 94.9752 27.715 94.9452 27.775C93.3552 30.865 91.9302 33.22 90.6702 34.84C89.4102 36.43 87.9852 37.225 86.3952 37.225ZM95.9669 37.45C94.0469 37.45 92.7269 37.105 92.0069 36.415C91.3169 35.725 90.9719 34.96 90.9719 34.12C90.9719 33.34 91.1669 32.635 91.5569 32.005C91.9469 31.345 92.3369 30.955 92.7269 30.835C92.9969 30.355 93.2819 29.83 93.5819 29.26C93.9119 28.69 94.2119 28.135 94.4819 27.595C95.0219 26.515 95.5769 25.495 96.1469 24.535C96.7169 23.545 97.3319 22.75 97.9919 22.15C98.6819 21.55 99.4019 21.25 100.152 21.25C100.512 21.25 100.887 21.325 101.277 21.475C101.667 21.655 101.862 21.835 101.862 22.015C101.862 22.135 101.802 22.225 101.682 22.285C101.562 22.345 101.427 22.36 101.277 22.33C100.737 22.18 100.242 22.33 99.7919 22.78C99.3419 23.23 99.1169 23.845 99.1169 24.625C99.1169 24.745 99.1169 24.88 99.1169 25.03C99.1469 25.15 99.1769 25.285 99.2069 25.435C99.3869 26.155 99.5669 26.98 99.7469 27.91C99.9569 28.84 100.062 29.785 100.062 30.745C100.062 31.105 100.047 31.465 100.017 31.825C99.9869 32.185 99.9119 32.53 99.7919 32.86C99.4019 33.97 98.8619 34.855 98.1719 35.515C97.5119 36.145 96.7019 36.61 95.7419 36.91C96.4619 36.94 97.2119 36.88 97.9919 36.73C98.8019 36.55 99.4919 36.295 100.062 35.965C101.052 35.395 101.922 34.615 102.672 33.625C103.452 32.635 104.142 31.6 104.742 30.52C105.342 29.41 105.882 28.405 106.362 27.505C106.392 27.385 106.482 27.325 106.632 27.325C106.722 27.325 106.797 27.37 106.857 27.46C106.917 27.52 106.917 27.595 106.857 27.685C106.257 28.795 105.642 29.92 105.012 31.06C104.382 32.17 103.677 33.205 102.897 34.165C102.117 35.095 101.187 35.86 100.107 36.46C98.9369 37.12 97.5569 37.45 95.9669 37.45ZM94.1219 36.685C94.7219 36.685 95.3369 36.49 95.9669 36.1C96.5969 35.71 97.0469 35.14 97.3169 34.39C97.6469 33.46 97.8419 32.425 97.9019 31.285C97.9919 30.115 98.0369 29.02 98.0369 28C98.0369 26.98 98.0519 26.2 98.0819 25.66C98.1419 24.82 98.3669 24.04 98.7569 23.32C99.1469 22.57 99.8069 22.12 100.737 21.97C100.527 21.85 100.317 21.79 100.107 21.79C99.5969 21.79 99.0719 22.015 98.5319 22.465C97.9919 22.915 97.5869 23.32 97.3169 23.68C96.8969 24.25 96.4919 24.925 96.1019 25.705C95.7119 26.485 95.2769 27.31 94.7969 28.18L93.4469 30.61C93.5369 30.58 93.6719 30.565 93.8519 30.565C94.3319 30.565 94.6319 30.7 94.7519 30.97C94.9019 31.24 94.9469 31.435 94.8869 31.555C94.7969 31.525 94.7069 31.51 94.6169 31.51C94.5569 31.48 94.4969 31.465 94.4369 31.465C93.9269 31.465 93.4769 31.675 93.0869 32.095C92.7269 32.515 92.4719 32.98 92.3219 33.49C92.2619 33.7 92.2169 33.91 92.1869 34.12C92.1569 34.3 92.1419 34.465 92.1419 34.615C92.1419 35.335 92.3369 35.86 92.7269 36.19C93.1169 36.52 93.5819 36.685 94.1219 36.685ZM105.853 37.18C105.163 37.18 104.668 36.925 104.368 36.415C104.068 35.905 103.918 35.305 103.918 34.615C103.918 33.685 104.113 32.755 104.503 31.825C105.133 30.175 105.718 28.75 106.258 27.55C106.828 26.35 107.398 25.195 107.968 24.085H106.753C106.633 24.085 106.573 24.025 106.573 23.905C106.573 23.815 106.618 23.71 106.708 23.59C106.798 23.47 106.903 23.41 107.023 23.41H108.328L111.568 16.93C112.078 16.81 112.618 16.675 113.188 16.525C113.788 16.345 114.328 16.15 114.808 15.94C114.328 16.75 113.668 17.815 112.828 19.135C111.988 20.425 111.133 21.85 110.263 23.41H113.458C113.578 23.41 113.638 23.47 113.638 23.59C113.638 23.68 113.593 23.785 113.503 23.905C113.413 24.025 113.308 24.085 113.188 24.085H109.858C108.928 25.735 108.088 27.445 107.338 29.215C106.618 30.985 106.138 32.65 105.898 34.21C105.868 34.33 105.853 34.465 105.853 34.615C105.853 34.735 105.853 34.84 105.853 34.93C105.853 35.74 106.123 36.145 106.663 36.145C106.993 36.145 107.368 36.01 107.788 35.74C108.208 35.44 108.613 35.095 109.003 34.705C109.963 33.745 110.788 32.68 111.478 31.51C112.198 30.34 112.858 29.155 113.458 27.955C113.518 27.895 113.563 27.865 113.593 27.865C113.803 27.865 113.908 27.985 113.908 28.225C113.878 28.225 113.788 28.36 113.638 28.63C113.518 28.9 113.443 29.05 113.413 29.08C112.873 30.13 112.318 31.135 111.748 32.095C111.178 33.055 110.488 33.97 109.678 34.84C109.228 35.32 108.658 35.83 107.968 36.37C107.278 36.91 106.573 37.18 105.853 37.18ZM115.531 37.225C114.361 37.225 113.776 36.595 113.776 35.335C113.776 34.285 114.241 32.755 115.171 30.745C115.441 30.205 115.741 29.56 116.071 28.81C116.431 28.06 116.731 27.34 116.971 26.65C117.241 25.93 117.376 25.345 117.376 24.895C117.376 24.475 117.226 24.265 116.926 24.265C116.566 24.265 116.206 24.49 115.846 24.94C115.486 25.39 115.156 25.9 114.856 26.47C114.586 27.01 114.361 27.445 114.181 27.775C113.731 28.645 113.221 29.59 112.651 30.61C112.081 31.63 111.511 32.53 110.941 33.31H110.896C110.836 33.31 110.746 33.28 110.626 33.22C110.536 33.13 110.506 33.07 110.536 33.04C111.106 32.26 111.661 31.36 112.201 30.34C112.771 29.32 113.251 28.39 113.641 27.55C113.971 26.92 114.316 26.275 114.676 25.615C115.066 24.925 115.516 24.355 116.026 23.905C116.536 23.425 117.121 23.185 117.781 23.185C118.891 23.185 119.446 23.62 119.446 24.49C119.446 25.06 119.266 25.825 118.906 26.785C118.546 27.745 118.066 28.96 117.466 30.43C116.926 31.69 116.521 32.755 116.251 33.625C116.011 34.465 115.891 35.125 115.891 35.605C115.891 36.175 116.086 36.46 116.476 36.46C116.896 36.46 117.571 36.07 118.501 35.29C119.311 34.57 120.091 33.685 120.841 32.635C121.591 31.555 122.401 30.1 123.271 28.27C123.511 27.79 123.751 27.19 123.991 26.47C124.261 25.72 124.486 25.06 124.666 24.49C124.876 23.92 124.981 23.635 124.981 23.635C125.491 23.515 126.061 23.365 126.691 23.185C127.321 22.975 127.876 22.765 128.356 22.555C128.056 22.855 127.621 23.53 127.051 24.58C126.511 25.63 125.941 26.83 125.341 28.18C124.771 29.5 124.276 30.79 123.856 32.05C123.346 33.49 123.091 34.645 123.091 35.515C123.091 36.235 123.316 36.595 123.766 36.595C123.976 36.595 124.231 36.505 124.531 36.325C124.861 36.145 125.251 35.86 125.701 35.47C126.091 35.14 126.451 34.75 126.781 34.3C127.141 33.85 127.486 33.385 127.816 32.905C128.266 32.245 128.731 31.48 129.211 30.61C129.721 29.74 130.276 28.72 130.876 27.55C130.936 27.46 130.981 27.415 131.011 27.415C131.101 27.415 131.176 27.46 131.236 27.55C131.326 27.61 131.356 27.67 131.326 27.73C129.706 30.91 128.281 33.295 127.051 34.885C125.821 36.445 124.486 37.225 123.046 37.225C122.476 37.225 122.056 37.03 121.786 36.64C121.546 36.25 121.426 35.725 121.426 35.065C121.426 34.555 121.486 33.985 121.606 33.355C121.726 32.725 121.891 32.08 122.101 31.42C120.991 33.34 119.926 34.795 118.906 35.785C117.886 36.745 116.761 37.225 115.531 37.225ZM132.354 37.45C130.434 37.45 129.114 37.105 128.394 36.415C127.704 35.725 127.359 34.96 127.359 34.12C127.359 33.34 127.554 32.635 127.944 32.005C128.334 31.345 128.724 30.955 129.114 30.835C129.384 30.355 129.669 29.83 129.969 29.26C130.299 28.69 130.599 28.135 130.869 27.595C131.409 26.515 131.964 25.495 132.534 24.535C133.104 23.545 133.719 22.75 134.379 22.15C135.069 21.55 135.789 21.25 136.539 21.25C136.899 21.25 137.274 21.325 137.664 21.475C138.054 21.655 138.249 21.835 138.249 22.015C138.249 22.135 138.189 22.225 138.069 22.285C137.949 22.345 137.814 22.36 137.664 22.33C137.124 22.18 136.629 22.33 136.179 22.78C135.729 23.23 135.504 23.845 135.504 24.625C135.504 24.745 135.504 24.88 135.504 25.03C135.534 25.15 135.564 25.285 135.594 25.435C135.774 26.155 135.954 26.98 136.134 27.91C136.344 28.84 136.449 29.785 136.449 30.745C136.449 31.105 136.434 31.465 136.404 31.825C136.374 32.185 136.299 32.53 136.179 32.86C135.789 33.97 135.249 34.855 134.559 35.515C133.899 36.145 133.089 36.61 132.129 36.91C132.849 36.94 133.599 36.88 134.379 36.73C135.189 36.55 135.879 36.295 136.449 35.965C137.439 35.395 138.309 34.615 139.059 33.625C139.839 32.635 140.529 31.6 141.129 30.52C141.729 29.41 142.269 28.405 142.749 27.505C142.779 27.385 142.869 27.325 143.019 27.325C143.109 27.325 143.184 27.37 143.244 27.46C143.304 27.52 143.304 27.595 143.244 27.685C142.644 28.795 142.029 29.92 141.399 31.06C140.769 32.17 140.064 33.205 139.284 34.165C138.504 35.095 137.574 35.86 136.494 36.46C135.324 37.12 133.944 37.45 132.354 37.45ZM130.509 36.685C131.109 36.685 131.724 36.49 132.354 36.1C132.984 35.71 133.434 35.14 133.704 34.39C134.034 33.46 134.229 32.425 134.289 31.285C134.379 30.115 134.424 29.02 134.424 28C134.424 26.98 134.439 26.2 134.469 25.66C134.529 24.82 134.754 24.04 135.144 23.32C135.534 22.57 136.194 22.12 137.124 21.97C136.914 21.85 136.704 21.79 136.494 21.79C135.984 21.79 135.459 22.015 134.919 22.465C134.379 22.915 133.974 23.32 133.704 23.68C133.284 24.25 132.879 24.925 132.489 25.705C132.099 26.485 131.664 27.31 131.184 28.18L129.834 30.61C129.924 30.58 130.059 30.565 130.239 30.565C130.719 30.565 131.019 30.7 131.139 30.97C131.289 31.24 131.334 31.435 131.274 31.555C131.184 31.525 131.094 31.51 131.004 31.51C130.944 31.48 130.884 31.465 130.824 31.465C130.314 31.465 129.864 31.675 129.474 32.095C129.114 32.515 128.859 32.98 128.709 33.49C128.649 33.7 128.604 33.91 128.574 34.12C128.544 34.3 128.529 34.465 128.529 34.615C128.529 35.335 128.724 35.86 129.114 36.19C129.504 36.52 129.969 36.685 130.509 36.685ZM144.175 37.45C142.255 37.45 140.935 37.105 140.215 36.415C139.525 35.725 139.18 34.96 139.18 34.12C139.18 33.34 139.375 32.635 139.765 32.005C140.155 31.345 140.545 30.955 140.935 30.835C141.205 30.355 141.49 29.83 141.79 29.26C142.12 28.69 142.42 28.135 142.69 27.595C143.23 26.515 143.785 25.495 144.355 24.535C144.925 23.545 145.54 22.75 146.2 22.15C146.89 21.55 147.61 21.25 148.36 21.25C148.72 21.25 149.095 21.325 149.485 21.475C149.875 21.655 150.07 21.835 150.07 22.015C150.07 22.135 150.01 22.225 149.89 22.285C149.77 22.345 149.635 22.36 149.485 22.33C148.945 22.18 148.45 22.33 148 22.78C147.55 23.23 147.325 23.845 147.325 24.625C147.325 24.745 147.325 24.88 147.325 25.03C147.355 25.15 147.385 25.285 147.415 25.435C147.595 26.155 147.775 26.98 147.955 27.91C148.165 28.84 148.27 29.785 148.27 30.745C148.27 31.105 148.255 31.465 148.225 31.825C148.195 32.185 148.12 32.53 148 32.86C147.61 33.97 147.07 34.855 146.38 35.515C145.72 36.145 144.91 36.61 143.95 36.91C144.67 36.94 145.42 36.88 146.2 36.73C147.01 36.55 147.7 36.295 148.27 35.965C149.26 35.395 150.13 34.615 150.88 33.625C151.66 32.635 152.35 31.6 152.95 30.52C153.55 29.41 154.09 28.405 154.57 27.505C154.6 27.385 154.69 27.325 154.84 27.325C154.93 27.325 155.005 27.37 155.065 27.46C155.125 27.52 155.125 27.595 155.065 27.685C154.465 28.795 153.85 29.92 153.22 31.06C152.59 32.17 151.885 33.205 151.105 34.165C150.325 35.095 149.395 35.86 148.315 36.46C147.145 37.12 145.765 37.45 144.175 37.45ZM142.33 36.685C142.93 36.685 143.545 36.49 144.175 36.1C144.805 35.71 145.255 35.14 145.525 34.39C145.855 33.46 146.05 32.425 146.11 31.285C146.2 30.115 146.245 29.02 146.245 28C146.245 26.98 146.26 26.2 146.29 25.66C146.35 24.82 146.575 24.04 146.965 23.32C147.355 22.57 148.015 22.12 148.945 21.97C148.735 21.85 148.525 21.79 148.315 21.79C147.805 21.79 147.28 22.015 146.74 22.465C146.2 22.915 145.795 23.32 145.525 23.68C145.105 24.25 144.7 24.925 144.31 25.705C143.92 26.485 143.485 27.31 143.005 28.18L141.655 30.61C141.745 30.58 141.88 30.565 142.06 30.565C142.54 30.565 142.84 30.7 142.96 30.97C143.11 31.24 143.155 31.435 143.095 31.555C143.005 31.525 142.915 31.51 142.825 31.51C142.765 31.48 142.705 31.465 142.645 31.465C142.135 31.465 141.685 31.675 141.295 32.095C140.935 32.515 140.68 32.98 140.53 33.49C140.47 33.7 140.425 33.91 140.395 34.12C140.365 34.3 140.35 34.465 140.35 34.615C140.35 35.335 140.545 35.86 140.935 36.19C141.325 36.52 141.79 36.685 142.33 36.685ZM161.306 20.35C160.886 20.35 160.526 20.215 160.226 19.945C159.956 19.645 159.821 19.3 159.821 18.91C159.821 18.4 159.986 17.965 160.316 17.605C160.676 17.245 161.096 17.065 161.576 17.065C161.996 17.065 162.356 17.215 162.656 17.515C162.956 17.815 163.106 18.19 163.106 18.64C163.106 19.12 162.926 19.525 162.566 19.855C162.206 20.185 161.786 20.35 161.306 20.35ZM156.356 37.225C155.816 37.225 155.381 37.03 155.051 36.64C154.751 36.22 154.601 35.68 154.601 35.02C154.601 34.18 154.766 33.28 155.096 32.32C155.456 31.36 155.861 30.4 156.311 29.44C156.791 28.45 157.211 27.52 157.571 26.65C157.721 26.23 157.856 25.855 157.976 25.525C158.096 25.195 158.156 24.925 158.156 24.715C158.156 24.415 158.021 24.265 157.751 24.265C157.391 24.265 157.031 24.49 156.671 24.94C156.311 25.39 155.981 25.9 155.681 26.47C155.411 27.01 155.186 27.445 155.006 27.775C154.556 28.645 154.061 29.545 153.521 30.475C153.011 31.405 152.486 32.26 151.946 33.04C151.946 33.07 151.916 33.085 151.856 33.085C151.796 33.085 151.721 33.04 151.631 32.95C151.541 32.86 151.511 32.8 151.541 32.77C152.111 31.96 152.636 31.105 153.116 30.205C153.626 29.275 154.091 28.39 154.511 27.55C154.811 26.92 155.141 26.275 155.501 25.615C155.891 24.925 156.341 24.355 156.851 23.905C157.361 23.425 157.946 23.185 158.606 23.185C158.906 23.185 159.251 23.26 159.641 23.41C160.091 23.59 160.316 23.98 160.316 24.58C160.316 24.88 160.256 25.24 160.136 25.66C160.046 26.05 159.911 26.5 159.731 27.01C159.341 28.03 158.906 29.065 158.426 30.115C157.976 31.135 157.556 32.17 157.166 33.22C156.866 34.03 156.716 34.75 156.716 35.38C156.716 36.07 156.941 36.415 157.391 36.415C157.811 36.415 158.456 36.04 159.326 35.29C160.196 34.51 161.006 33.535 161.756 32.365C162.506 31.165 163.406 29.56 164.456 27.55C164.486 27.49 164.546 27.46 164.636 27.46C164.696 27.46 164.756 27.505 164.816 27.595C164.906 27.655 164.936 27.715 164.906 27.775C163.316 30.865 161.891 33.22 160.631 34.84C159.371 36.43 157.946 37.225 156.356 37.225Z" fill="#4594DC"/>
</g>
<defs>
<filter id="filter0_d_15_13" x="0.464966" y="0.459961" width="168.486" height="57.4551" filterUnits="userSpaceOnUse" color-interpolation-filters="sRGB">
<feFlood flood-opacity="0" result="BackgroundImageFix"/>
<feColorMatrix in="SourceAlpha" type="matrix" values="0 0 0 0 0 0 0 0 0 0 0 0 0 0 0 0 0 0 127 0" result="hardAlpha"/>
<feOffset dy="4"/>
<feGaussianBlur stdDeviation="2"/>
<feComposite in2="hardAlpha" operator="out"/>
<feColorMatrix type="matrix" values="0 0 0 0 0 0 0 0 0 0 0 0 0 0 0 0 0 0 0.25 0"/>
<feBlend mode="normal" in2="BackgroundImageFix" result="effect1_dropShadow_15_13"/>
<feBlend mode="normal" in="SourceGraphic" in2="effect1_dropShadow_15_13" result="shape"/>
</filter>
</defs>
</svg>
